<svg width="30" height="30" viewBox="0 0 30 30" fill="none" xmlns="http://www.w3.org/2000/svg">
<path d="M22.1416 4.59401C21.6142 4.06732 20.8994 3.77148 20.1541 3.77148C19.4087 3.77148 18.6939 4.06732 18.1666 4.59401L14.9247 7.82838C14.786 7.20366 14.4385 6.64489 13.9394 6.24435C13.4404 5.8438 12.8196 5.62542 12.1797 5.62526H6.55469C5.80877 5.62526 5.0934 5.92158 4.56595 6.44902C4.0385 6.97647 3.74219 7.69184 3.74219 8.43776V23.434C3.74219 24.3903 4.22031 25.2378 4.94969 25.744C5.40531 26.0628 5.96219 26.2503 6.56031 26.2503H21.5603C22.3062 26.2503 23.0216 25.9539 23.5491 25.4265C24.0765 24.8991 24.3728 24.1837 24.3728 23.4378V17.8128C24.3727 17.1894 24.1654 16.5837 23.7836 16.0909C23.4018 15.5981 22.867 15.2461 22.2634 15.0903L25.4603 11.8878C25.9876 11.3603 26.2838 10.6451 26.2838 9.89932C26.2838 9.15355 25.9876 8.43831 25.4603 7.91088L22.1416 4.59213V4.59401ZM14.9922 12.0378L17.9547 15.0003H14.9922V12.0378ZM13.1172 15.0003H5.61719V8.43776C5.61719 8.18912 5.71596 7.95066 5.89178 7.77485C6.06759 7.59903 6.30605 7.50026 6.55469 7.50026H12.1797C12.4283 7.50026 12.6668 7.59903 12.8426 7.77485C13.0184 7.95066 13.1172 8.18912 13.1172 8.43776V15.0003ZM6.01844 24.2065C5.89564 24.1195 5.79558 24.0043 5.72672 23.8705C5.65786 23.7367 5.62222 23.5882 5.62281 23.4378V16.8753H13.1172V24.3715H6.55469C6.36283 24.3718 6.17555 24.3129 6.01844 24.2028V24.2065ZM14.9922 24.3753V16.8753H21.5603C21.809 16.8753 22.0474 16.974 22.2232 17.1498C22.399 17.3257 22.4978 17.5641 22.4978 17.8128V23.4378C22.4978 23.6864 22.399 23.9249 22.2232 24.1007C22.0474 24.2765 21.809 24.3753 21.5603 24.3753H14.9922Z" fill="#2B3138"/>
</svg>
