<svg width="30" height="30" viewBox="0 0 30 30" fill="none" xmlns="http://www.w3.org/2000/svg">
<path d="M12.5 26.25H17.5C17.5 26.913 17.2366 27.5489 16.7678 28.0178C16.2989 28.4866 15.6631 28.75 15 28.75C14.337 28.75 13.7011 28.4866 13.2323 28.0178C12.7634 27.5489 12.5 26.913 12.5 26.25ZM26.25 23.75V25H3.75002V23.75L6.25002 21.25V13.75C6.25002 9.875 8.78752 6.4625 12.5 5.3625V5C12.5 4.33696 12.7634 3.70107 13.2323 3.23223C13.7011 2.76339 14.337 2.5 15 2.5C15.6631 2.5 16.2989 2.76339 16.7678 3.23223C17.2366 3.70107 17.5 4.33696 17.5 5V5.3625C21.2125 6.4625 23.75 9.875 23.75 13.75V21.25L26.25 23.75ZM21.25 13.75C21.25 12.0924 20.5915 10.5027 19.4194 9.33058C18.2473 8.15848 16.6576 7.5 15 7.5C13.3424 7.5 11.7527 8.15848 10.5806 9.33058C9.4085 10.5027 8.75002 12.0924 8.75002 13.75V22.5H21.25V13.75ZM24.6875 3.9875L22.9125 5.7625C23.9697 6.80677 24.8091 8.05053 25.382 9.42165C25.955 10.7928 26.25 12.264 26.25 13.75H28.75C28.75 10.0875 27.3 6.5625 24.6875 3.9875ZM1.25002 13.75H3.75002C3.75002 10.75 4.95002 7.875 7.08752 5.7625L5.31252 3.9875C4.02238 5.26446 2.99886 6.78509 2.30145 8.46101C1.60404 10.1369 1.24664 11.9348 1.25002 13.75V13.75Z" fill="#2B3138"/>
</svg>
